<svg xmlns="http://www.w3.org/2000/svg" fill="none" viewBox="0 0 600 600"><g clip-path="url(#devicon-seaborn-icon-1-a)"><path fill="#fff" d="M302.1 5.6a292.3 292.3 0 1 0 292.3 296v-7.4A292.3 292.3 0 0 0 302 5.6"/><path fill="#AFDAD2" stroke="#fff" stroke-width=".3" d="M235.4 173.4a11.3 11.3 0 1 0 0-22.5 11.3 11.3 0 0 0 0 22.5Zm-24.3 17a11 11 0 1 0 0-21.8 11 11 0 0 0 0 21.8Zm-23.3 10.8a10.3 10.3 0 1 0 0-20.6 10.3 10.3 0 0 0 0 20.6Zm68-41.2a11.6 11.6 0 1 0 0-23.2 11.6 11.6 0 0 0 0 23.2Zm-85.5 16.8a7.8 7.8 0 1 0 0-15.5 7.8 7.8 0 0 0 0 15.5ZM151 219.5a9.3 9.3 0 1 0 0-18.5 9.3 9.3 0 0 0 0 18.5Zm11.9-73.3a11.2 11.2 0 1 0 0-22.3 11.2 11.2 0 0 0 0 22.3ZM193 167a8.6 8.6 0 1 0 0-17.2 8.6 8.6 0 0 0 0 17.3Zm148.7-25.6a10 10 0 1 0 0-20.2 10 10 0 0 0 0 20.2Zm-211.5 53.4a6.1 6.1 0 1 0 0-12.2 6.1 6.1 0 0 0 0 12.2Zm20.3-5.8a7.3 7.3 0 1 0 0-14.5 7.3 7.3 0 0 0 0 14.6Zm-37.1-23a9.6 9.6 0 1 0 0-19.2 9.6 9.6 0 0 0 0 19.3Zm37.9-4.2a5 5 0 1 0 0-10 5 5 0 0 0 0 10Zm67.1-7.8a9.4 9.4 0 1 0 0-18.7 9.4 9.4 0 0 0 0 18.7Zm71.1 5.4a8 8 0 1 0 0-16.1 8 8 0 0 0 0 16.1Zm14.8-50.4a5.3 5.3 0 1 0 0-10.5 5.3 5.3 0 0 0 0 10.6Zm17.1 30.5a8.8 8.8 0 1 0 0-17.7 8.8 8.8 0 0 0 0 17.7Zm-88.2-5.2a9 9 0 1 0 0-18.1 9 9 0 0 0 0 18.1Zm-113.7 87.2a7.4 7.4 0 1 0 0-14.7 7.4 7.4 0 0 0 0 14.7Z"/><path fill="#AFDAD2" stroke="#fff" stroke-width=".3" d="M362 143.3a11.2 11.2 0 1 0 0-22.5 11.2 11.2 0 0 0 0 22.5Zm-108.1-7.6a10.3 10.3 0 1 0 0-20.6 10.3 10.3 0 0 0 0 20.6ZM134.3 144a9.5 9.5 0 1 0 0-19 9.5 9.5 0 0 0 0 19Zm53.1-24.7a11 11 0 1 0 0-22 11 11 0 0 0 0 22Zm207 14.9a6.8 6.8 0 1 0 0-13.6 6.8 6.8 0 0 0 0 13.6ZM157 106.4a8.7 8.7 0 1 0 0-17.4 8.7 8.7 0 0 0 0 17.4Zm39 38.8a7.4 7.4 0 1 0 0-14.8 7.4 7.4 0 0 0 0 14.8Zm17.8-16a7.5 7.5 0 1 0 0-15 7.5 7.5 0 0 0 0 15ZM98 148.2a7.5 7.5 0 1 0 0-15 7.5 7.5 0 0 0 0 15Zm20.8-29.3a7 7 0 1 0 0-13.9 7 7 0 0 0 0 13.9Zm159.7 21.5a5.8 5.8 0 1 0 0-11.6 5.8 5.8 0 0 0 0 11.6Zm-185.8 46a9.6 9.6 0 1 0 0-19.2 9.6 9.6 0 0 0 0 19.2Zm-21.5-16.1a7.2 7.2 0 1 0 0-14.5 7.2 7.2 0 0 0 0 14.5Zm227.1-31.6a7.3 7.3 0 1 0 0-14.5 7.3 7.3 0 0 0 0 14.5Zm-164.9 37.7a11.2 11.2 0 1 0 0-22.4 11.2 11.2 0 0 0 0 22.4Zm246.3-50.9a11.2 11.2 0 1 0 0-22.4 11.2 11.2 0 0 0 0 22.4ZM98.6 231.1a6.5 6.5 0 1 0 0-13 6.5 6.5 0 0 0 0 13Zm162.5-126.9a9 9 0 1 0 0-17.9 9 9 0 0 0 0 18ZM447 116.5a9.1 9.1 0 1 0 0-18.2 9.1 9.1 0 0 0 0 18.2Zm-121.6-4.6a7.3 7.3 0 1 0 0-14.6 7.3 7.3 0 0 0 0 14.6Zm-158.6 96a9.5 9.5 0 1 0 0-19 9.5 9.5 0 0 0 0 19ZM350 115a9 9 0 1 0 0-18.1 9 9 0 0 0 0 18.1Zm64.4 8.9a7.5 7.5 0 1 0 0-15 7.5 7.5 0 0 0 0 15Zm71 16.3a6.8 6.8 0 1 0 0-13.6 6.8 6.8 0 0 0 0 13.6ZM231.6 90.3a5.8 5.8 0 1 0 0-11.7 5.8 5.8 0 0 0 0 11.7Zm53.1-16a8.6 8.6 0 1 0 0-17.1 8.6 8.6 0 0 0 0 17.1ZM484 120.2a11.3 11.3 0 1 0 0-22.6 11.3 11.3 0 0 0 0 22.6Zm-212.2 4.6a10.7 10.7 0 1 0 0-21.3 10.7 10.7 0 0 0 0 21.3Zm39.5-40a10.6 10.6 0 1 0 0-21.2 10.6 10.6 0 0 0 0 21.2Zm92.1 13a11 11 0 1 0 0-22 11 11 0 0 0 0 22Zm114 69.2a10.4 10.4 0 1 0 0-20.8 10.4 10.4 0 0 0 0 20.8ZM282.3 40.8a6 6 0 1 0 0-12 6 6 0 0 0 0 12Z"/><path fill="#AFDAD2" stroke="#fff" stroke-width=".3" d="M377.4 104a10 10 0 1 0 0-20 10 10 0 0 0 0 20ZM364 84.8a8 8 0 1 0 0-16.1 8 8 0 0 0 0 16.1Zm-40.5-17.6a10.4 10.4 0 1 0 0-20.7 10.4 10.4 0 0 0 0 20.7Zm-114.2 42.2a11.6 11.6 0 1 0 0-23.2 11.6 11.6 0 0 0 0 23.2Zm-71.7-17a6.3 6.3 0 1 0 0-12.7 6.3 6.3 0 0 0 0 12.7Zm30.1-4.3a8.2 8.2 0 1 0 0-16.4 8.2 8.2 0 0 0 0 16.4ZM443 137.8a10.1 10.1 0 1 0 0-20.2 10.1 10.1 0 0 0 0 20.2ZM332.2 84.5a5.6 5.6 0 1 0 0-11.2 5.6 5.6 0 0 0 0 11.2Zm-119.1 1.1a10.6 10.6 0 1 0 0-21.2 10.6 10.6 0 0 0 0 21.2ZM57 216a9.3 9.3 0 1 0 0-18.4 9.3 9.3 0 0 0 0 18.5Zm24.7 3.2a10.7 10.7 0 1 0 0-21.5 10.7 10.7 0 0 0 0 21.5Zm86.8-94.7a10.3 10.3 0 1 0 0-20.7 10.3 10.3 0 0 0 0 20.7ZM60 193a8 8 0 1 0 0-16 8 8 0 0 0 0 16ZM383.2 76.7a8.8 8.8 0 1 0 0-17.6 8.8 8.8 0 0 0 0 17.6ZM139 113.5a8 8 0 1 0 0-16 8 8 0 0 0 0 16Z"/><path fill="#AFDAD2" stroke="#fff" stroke-width=".3" d="M100.4 209.6a11.2 11.2 0 1 0 0-22.3 11.2 11.2 0 0 0 0 22.3Zm363.9-76.1a11 11 0 1 0 0-22 11 11 0 0 0 0 22Zm39.5-1.3a7.5 7.5 0 1 0 0-15.1 7.5 7.5 0 0 0 0 15ZM243 113.5a8.4 8.4 0 1 0 0-16.8 8.4 8.4 0 0 0 0 16.8Zm184.5-9.5a7 7 0 1 0 0-14 7 7 0 0 0 0 14Zm-3.1-17.6a11.5 11.5 0 1 0 0-23 11.5 11.5 0 0 0 0 23ZM283 106a10.3 10.3 0 1 0 0-20.6 10.3 10.3 0 0 0 0 20.6Zm216.8 49.6a8.8 8.8 0 1 0 0-17.6 8.8 8.8 0 0 0 0 17.6ZM79.5 235a5.2 5.2 0 1 0 0-10.3 5.2 5.2 0 0 0 0 10.4ZM188 91.9a9.6 9.6 0 1 0 0-19.3 9.6 9.6 0 0 0 0 19.3Zm70.4-15.7a6.9 6.9 0 1 0 0-13.8 6.9 6.9 0 0 0 0 13.8Zm199.8 21.2a8.7 8.7 0 1 0 0-17.3 8.7 8.7 0 0 0 0 17.3Zm-219-35.1a10.8 10.8 0 1 0 0-21.6 10.8 10.8 0 0 0 0 21.6Z"/><path fill="#AFDAD2" stroke="#fff" stroke-width=".3" d="M408.2 72.6a10 10 0 1 0 0-20 10 10 0 0 0 0 20ZM190.6 62a8 8 0 1 0 0-16 8 8 0 0 0 0 16Zm19.2-6.2a8.8 8.8 0 1 0 0-17.6 8.8 8.8 0 0 0 0 17.6Zm135.7-11.1a10.3 10.3 0 1 0 0-20.6 10.3 10.3 0 0 0 0 20.6ZM304 47a8 8 0 1 0 0-16.1 8 8 0 0 0 0 16Zm62.1 9.7a6.1 6.1 0 1 0 0-12.3 6.1 6.1 0 0 0 0 12.3Z"/><path fill="#AFDAD2" stroke="#fff" stroke-width=".3" d="M345.6 66.2a11.4 11.4 0 1 0 0-22.8 11.4 11.4 0 0 0 0 22.8Zm45.2-11.1a7.9 7.9 0 1 0 0-15.7 7.9 7.9 0 0 0 0 15.7ZM37.3 247.3a9.9 9.9 0 1 0 0-19.8 9.9 9.9 0 0 0 0 19.8ZM261.9 54.4a5.3 5.3 0 1 0 0-10.6 5.3 5.3 0 0 0 0 10.6Zm183 24.4a6.4 6.4 0 1 0 0-12.8 6.4 6.4 0 0 0 0 12.8ZM324.7 46.7a9.3 9.3 0 1 0 0-18.6 9.3 9.3 0 0 0 0 18.6ZM112.4 187.9a10.7 10.7 0 1 0 0-21.5 10.7 10.7 0 0 0 0 21.5Z"/><path fill="#fff" d="m408.6 137.3-11-.3-11 .2-11.1.8-11 1.3-11.1 1.8-11 2.2-11 2.7-11 3-11 3.5-11 3.8-11 4-10.9 4.4-10.9 4.5-10.9 4.7-10.8 4.8-10.9 5-21.7 9.8-10.8 4.9-10.8 4.8-10.8 4.6-10.8 4.6-10.7 4.4-10.8 4.2-10.7 4-10.9 4-10.7 3.6-10.8 3.4-10.5 3-11 3-10.7 2.7-10.7 2.5-10.8 2.3-10.7 2-10.8 2-11.7 1.8-.6 3.6a287 287 0 0 0-1 73.1l.7 6.7 15.6-7L42 327l21.7-9.9 10.8-4.9 10.8-4.7 10.8-4.7 10.8-4.5 10.7-4.2 10.8-4 10.7-3.8 10.7-3.3 10.7-3 10.6-2.6 10.7-2.2 10.6-1.6 10.6-1.3 10.6-.7 10.6-.3 10.6.3 10.6.7 10.6 1.3 10.6 1.7 10.7 2.1L288 280l10.7 3 10.7 3.4L320 290l10.7 4 10.7 4.3 10.8 4.4 10.7 4.7 10.8 4.8 10.8 4.8 21.7 9.9 10.8 4.8 10.8 4.9 11 4.7 10.8 4.6 10.9 4.4 10.9 4.3 10.9 4 10.9 4 10.9 3.6 10.9 3.5 11 3.2 10.8 3 11 2.7 10.9 2.6 15.3 3.2 1.3-4.3q10.8-37.5 11.4-76.6v-11.2c-1-35-8.4-69.7-21.8-102.2l-1-2.3-1.8-4.1-11.1-5-10.9-4.9-10.9-4.7-10.8-4.5-11-4.3-10.9-4-11-3.9-10.9-3.4-11-3.1-11-2.7-11-2.2-11-1.8-11-1.3zm-11.1 4.6 10.8.3 10.8.7 10.8 1.3 10.9 1.7 10.8 2.2 10.8 2.6 10.9 3 10.8 3.5 10.8 3.7 10.8 4 10.9 4.4 10.8 4.5 10.8 4.6 10.9 4.8 9.4 4.3 2 4.6a282 282 0 0 1 21.3 100.5v3.8l.1 3.6v3.6a282 282 0 0 1-11.2 75.2l-10.8-2.3L549 374l-10.9-2.8-10.8-3-10.8-3.1-10.9-3.4L495 358l-10.8-3.8-10.8-4-10.9-4.3-10.8-4.4-10.8-4.6-10.9-4.7-10.8-4.8-10.8-5-21.7-9.8-10.8-4.8L365 303l-10.9-4.7-10.8-4.5-10.8-4.3-10.8-4-10.9-3.8-10.8-3.4-10.8-3-10.9-2.7-10.8-2.2-10.8-1.7-10.8-1.3-10.9-.7-10.8-.3-10.8.3-10.9.7-10.8 1.3-10.8 1.7-10.8 2.2-10.9 2.7-10.8 3-10.8 3.4-10.9 3.7-10.8 4-10.8 4.4-10.8 4.5-10.9 4.7-10.8 4.8-10.8 4.8-21.7 9.9-10.8 4.9-9.4 4.2a282 282 0 0 1 1.1-72l8.3-1.3 10.8-2 10.8-2 10.9-2.3 10.8-2.6 10.8-2.7 10.9-3 10.8-3.1 10.8-3.5 10.8-3.6 10.9-3.8 10.8-4 10.8-4.3 10.9-4.5 10.8-4.5 10.8-4.8 10.8-4.8 10.9-4.8 21.6-10 10.9-4.9 10.8-4.8 10.8-4.6 10.8-4.5 10.9-4.3 10.8-4 10.8-3.8 10.9-3.4 10.8-3 10.8-2.7 10.8-2.2 10.9-1.7 10.8-1.3 10.8-.7z"/><path fill="#7DB0BC" stroke="#fff" d="m397.5 140.7 10.8.3 11 .7L430 143l10.9 1.7 10.9 2.3 10.8 2.6 10.9 3 10.8 3.5 11 3.7 10.8 4 10.8 4.4 10.9 4.5 10.8 4.7 10.8 4.8 9.9 4.4A283 283 0 0 1 583 294v9.6a283 283 0 0 1-11.5 76.5l-11.9-2.5-10.8-2.5-10.9-2.7-10.8-3-10.9-3.2-10.8-3.4-10.9-3.7-10.8-3.8-10.9-4L462 347l-10.9-4.5-10.8-4.5-10.8-4.8-10.9-4.8-10.8-4.9-21.7-9.8-10.8-4.9-10.8-4.8-10.8-4.6-10.8-4.5-10.8-4.3-10.8-4-10.8-3.8-10.8-3.4-10.8-3-10.8-2.6-10.8-2.2-10.8-1.7-10.8-1.3-10.7-.7-10.8-.3-10.8.3-10.7.7-10.8 1.3-10.8 1.7-10.8 2.2-10.8 2.6-10.8 3-10.8 3.4-10.8 3.7-10.8 4-10.8 4.4-10.8 4.5L84 304l-10.8 4.8-10.8 4.9-21.7 9.8-10.8 5-11 4.8a283 283 0 0 1 1.2-74.8l9-1.4 10.9-1.9 10.8-2 10.8-2.4 10.8-2.5 10.8-2.7 10.8-3 10.8-3.2 10.8-3.4 10.9-3.6 10.8-3.8 10.8-4 10.8-4.3 10.8-4.4 10.8-4.6 10.8-4.7 10.9-4.8 10.8-5 21.6-9.8 10.9-4.8 10.8-4.8 10.9-4.7 10.8-4.5 10.9-4.3 10.8-4 10.9-3.8 10.8-3.5 10.9-3L343 147l10.8-2.3 11-1.7 10.8-1.3 10.9-.7z"/><path fill="#5C7DA2" d="m224.2 271.8 10.8.3 10.9.8 10.8 1.2 10.8 1.7 10.8 2.2 10.9 2.7 10.8 3 10.8 3.4 10.9 3.8 10.8 4 10.8 4.3 10.8 4.5 10.9 4.7 10.8 4.8 10.8 4.9 10.9 4.9 10.8 4.9 10.8 4.9 10.8 4.8 10.9 4.7 10.8 4.6 10.8 4.4 10.9 4.2 10.8 4.1 10.8 3.8 10.8 3.7 10.9 3.4 10.8 3.2 10.8 3 10.9 2.7 10.8 2.5 9.3 2a281.8 281.8 0 0 1-548.7-47.2l8.8-4L40 328l10.8-5 10.9-4.8 10.8-5 10.8-4.7 10.9-4.7 10.8-4.5 10.8-4.3 10.8-4 10.9-3.8 10.8-3.4 10.8-3 10.9-2.7 10.8-2.2 10.8-1.7 10.8-1.2 10.9-.8z"/><path fill="#444876" d="M245.9 344.8v36.4h65v50.1h64.9v34.3h65v14.5h65v12.6l-6.5 6.6A282 282 0 0 1 51 432.1v-33.8h65V353h65v-8.2z"/><path fill="#fff" d="M248 342.6V379h65v50.2h65v34.3h65V478h65v12.4l-4.5 4.8v-12.8H443V543l-4.5 2.5v-77.7H378V571l-4.4 1.2V433.5H313v148.1l-4.4.2V383.4h-60.5V577l-4.5-.9v-229h-60.5v209.4l-4.4-2V355.2H118v160.2l-4.4-3.8V400.5H53.2v35.7l-4.5-8.4V396h65v-45.2h65v-8.2z"/><path fill="#444876" d="M300 0a300 300 0 0 1 300 296.2v7.6A300 300 0 1 1 300 0m0 9.9a290.2 290.2 0 1 0 290.1 293.8v-7.4A290 290 0 0 0 300 10"/></g><defs><clipPath id="devicon-seaborn-icon-1-a"><path fill="#fff" d="M0 0h600v600H0z"/></clipPath></defs></svg>